<svg width="12" height="21" viewBox="0 0 12 21" fill="none" xmlns="http://www.w3.org/2000/svg">
<path d="M0.879475 9.27151L8.72073 1.43026C8.87889 1.2721 9.06665 1.14664 9.2733 1.06105C9.47994 0.975452 9.70143 0.931396 9.9251 0.931396C10.1488 0.931396 10.3703 0.975452 10.5769 1.06105C10.7836 1.14664 10.9713 1.2721 11.1295 1.43026C11.2876 1.58843 11.4131 1.77619 11.4987 1.98284C11.5843 2.18948 11.6283 2.41097 11.6283 2.63464C11.6283 2.85831 11.5843 3.0798 11.4987 3.28644C11.4131 3.49309 11.2876 3.68085 11.1295 3.83901L4.50114 10.4844L11.1295 17.1128C11.2876 17.2709 11.4131 17.4587 11.4987 17.6653C11.5843 17.872 11.6283 18.0935 11.6283 18.3171C11.6283 18.5408 11.5843 18.7623 11.4987 18.9689C11.4131 19.1756 11.2876 19.3634 11.1295 19.5215C10.9713 19.6797 10.7836 19.8051 10.5769 19.8907C10.3703 19.9763 10.1488 20.0204 9.9251 20.0204C9.70143 20.0204 9.47994 19.9763 9.2733 19.8907C9.06665 19.8051 8.87889 19.6797 8.72073 19.5215L0.879475 11.6803C0.721106 11.5222 0.595463 11.3345 0.509736 11.1278C0.424009 10.9212 0.379883 10.6996 0.379883 10.4759C0.379883 10.2522 0.424009 10.0306 0.509736 9.82395C0.595463 9.61729 0.721106 9.42956 0.879475 9.27151Z" fill="#FCF7F8"/>
</svg>
